<svg xmlns="http://www.w3.org/2000/svg" aria-hidden="true" style="position:absolute;width:0;height:0;overflow:hidden">
  <defs>
    <symbol id="circleplus" viewBox="0 0 32 32">
      <path stroke-linecap="round" stroke-linejoin="round" stroke-width="1.6" d="M16 11.2v9.6m4.8-4.8h-9.6m19.2 0a14.395 14.395 0 0 1-8.889 13.304 14.414 14.414 0 0 1-11.022 0 14.407 14.407 0 0 1-7.794-7.793A14.395 14.395 0 0 1 5.817 5.818a14.397 14.397 0 0 1 20.364 0A14.403 14.403 0 0 1 30.399 16z"/>
    </symbol>
    <symbol id="delete" viewBox="0 0 32 32">
      <path stroke-linecap="round" stroke-linejoin="round" stroke-width="1.454" d="m19.985 11.636-.503 13.091m-6.964 0-.503-13.091m14.498-4.669c.497.076.992.156 1.487.241m-1.487-.241L24.96 27.16a3.271 3.271 0 0 1-3.264 3.021H10.304A3.273 3.273 0 0 1 7.04 27.16L5.487 6.967m21.026 0a69.834 69.834 0 0 0-5.059-.577m-15.967.577c-.497.074-.992.154-1.487.24m1.487-.24a69.834 69.834 0 0 1 5.059-.577m10.909 0V5.058c0-1.716-1.324-3.148-3.04-3.201a76.226 76.226 0 0 0-4.829 0c-1.716.054-3.04 1.487-3.04 3.201V6.39m10.909 0a70.69 70.69 0 0 0-10.909 0"/>
    </symbol>
    <symbol id="download" viewBox="0 0 32 32">
      <path stroke-linecap="round" stroke-linejoin="round" stroke-width="1.6" d="M1.6 23.2v3.6a3.602 3.602 0 0 0 3.6 3.6h21.6a3.602 3.602 0 0 0 3.6-3.6v-3.6M8.8 8.8 16 1.6m0 0 7.2 7.2M16 1.6v21.6"/>
    </symbol>
    <symbol id="edit" viewBox="0 0 32 32">
      <path stroke-linecap="round" stroke-linejoin="round" stroke-width="1.524" d="m22.647 5.314 2.571-2.572a2.858 2.858 0 0 1 4.042 4.042L13.079 22.965a6.86 6.86 0 0 1-2.891 1.722l-4.091 1.219 1.219-4.091a6.86 6.86 0 0 1 1.722-2.891L22.649 5.315zm0 0 4.02 4.02M24.381 19.81v7.238a3.428 3.428 0 0 1-3.428 3.428h-16a3.428 3.428 0 0 1-3.428-3.428v-16A3.428 3.428 0 0 1 4.953 7.62h7.238"/>
    </symbol>
    <symbol id="exit" viewBox="0 0 32 32">
      <path stroke-linecap="round" stroke-linejoin="round" stroke-width="1.6" d="M19.6 11.2v-6A3.602 3.602 0 0 0 16 1.6H6.4a3.602 3.602 0 0 0-3.6 3.6v21.6a3.602 3.602 0 0 0 3.6 3.6H16a3.602 3.602 0 0 0 3.6-3.6v-6m4.8 0 4.8-4.8m0 0-4.8-4.8m4.8 4.8H8.8"/>
    </symbol>
    <symbol id="eye" viewBox="0 0 32 32">
      <path stroke-linecap="round" stroke-linejoin="round" stroke-width="1.333" d="M2.715 16.429a1.35 1.35 0 0 1 0-.852C4.564 10.013 9.814 6 16 6c6.184 0 11.431 4.009 13.284 9.571.093.276.093.575 0 .852C27.436 21.987 22.187 26 16 26c-6.184 0-11.432-4.009-13.285-9.571z"/>
      <path stroke-linecap="round" stroke-linejoin="round" stroke-width="1.333" d="M20 16a4.003 4.003 0 0 1-4 4 4.003 4.003 0 0 1-4-4 4.003 4.003 0 0 1 4-4 4.003 4.003 0 0 1 4 4z"/>
    </symbol>
    <symbol id="eyeslash" viewBox="0 0 32 32">
      <path stroke-linecap="round" stroke-linejoin="round" stroke-width="1.454" d="M4.335 10.506A15.239 15.239 0 0 0 1.359 16C3.238 22.31 9.083 26.909 16 26.909c1.444 0 2.841-.201 4.164-.575M7.604 7.604A15.196 15.196 0 0 1 16 5.091c6.918 0 12.761 4.599 14.64 10.906a15.31 15.31 0 0 1-6.244 8.399M7.604 7.604 2.909 2.909m4.695 4.695 5.309 5.309m11.483 11.483 4.695 4.695m-4.695-4.695-5.309-5.309a4.356 4.356 0 0 0 1.278-3.086 4.368 4.368 0 0 0-2.694-4.032 4.368 4.368 0 0 0-4.756.946m6.17 6.17-6.169-6.169"/>
    </symbol>
    <symbol id="leftarrow" viewBox="0 0 32 32">
      <path d="M8.448 9.152a1.199 1.199 0 0 1 0 1.696L4.496 14.8H30.4a1.201 1.201 0 1 1 0 2.4H4.496l3.952 3.952a1.2 1.2 0 1 1-1.696 1.696l-6-6a1.199 1.199 0 0 1 0-1.696l6-6a1.199 1.199 0 0 1 1.696 0z"/>
    </symbol>
    <symbol id="minus" viewBox="0 0 32 32">
      <path d="M.571 16a1.714 1.714 0 0 1 1.714-1.714h27.429a1.714 1.714 0 0 1 0 3.428H2.285A1.714 1.714 0 0 1 .571 16z"/>
    </symbol>
    <symbol id="plus" viewBox="0 0 32 32">
      <path stroke-linecap="round" stroke-linejoin="round" stroke-width="2.286" d="M16 2.286v27.429M29.714 16H2.285"/>
    </symbol>
    <symbol id="settings" viewBox="0 0 32 32">
      <path stroke-linecap="round" stroke-linejoin="round" stroke-width="1.333" d="M12.792 5.253A1.5 1.5 0 0 1 14.272 4h3.457c.733 0 1.36.531 1.48 1.253l.284 1.708c.084.499.417.915.86 1.16.099.053.196.111.293.169.432.261.96.343 1.433.165l1.623-.608a1.498 1.498 0 0 1 1.826.654l1.728 2.996c.177.308.24.668.177 1.018s-.249.665-.523.89l-1.337 1.103c-.391.32-.584.817-.575 1.323.002.113.002.227 0 .34-.009.504.184 1 .573 1.32l1.34 1.104c.565.467.712 1.272.347 1.907l-1.731 2.996a1.499 1.499 0 0 1-1.826.655l-1.623-.608c-.473-.177-1-.096-1.435.165a8.597 8.597 0 0 1-.293.171c-.441.244-.775.66-.859 1.159l-.284 1.707a1.5 1.5 0 0 1-1.48 1.255h-3.459c-.733 0-1.36-.531-1.48-1.253l-.284-1.708c-.083-.499-.416-.915-.859-1.16a9.308 9.308 0 0 1-.293-.169c-.433-.261-.96-.343-1.435-.165l-1.623.608a1.5 1.5 0 0 1-1.825-.653L4.74 20.506a1.5 1.5 0 0 1 .347-1.908l1.339-1.103c.389-.32.583-.817.573-1.323a9.634 9.634 0 0 1 0-.34c.009-.504-.184-1-.573-1.32l-1.339-1.104a1.502 1.502 0 0 1-.347-1.907l1.729-2.996a1.497 1.497 0 0 1 1.826-.654l1.621.608c.475.177 1.001.096 1.435-.165.096-.059.195-.116.293-.171.443-.244.776-.66.859-1.159l.285-1.708z"/>
      <path stroke-linecap="round" stroke-linejoin="round" stroke-width="1.333" d="M20 16a4.003 4.003 0 0 1-4 4 4.003 4.003 0 0 1-4-4 4.003 4.003 0 0 1 4-4 4.003 4.003 0 0 1 4 4z"/>
    </symbol>
    <symbol id="unfold" viewBox="0 0 32 32">
      <path d="M16.942 23.609a1.332 1.332 0 0 1-1.884 0L1.725 10.276a1.332 1.332 0 0 1 1.884-1.883L16 20.784 28.391 8.393a1.33 1.33 0 0 1 1.475-.327 1.347 1.347 0 0 1 .738.736 1.338 1.338 0 0 1-.327 1.475L16.944 23.61z"/>
    </symbol>
<!-- WelcomePage -->
    <symbol id="benefits-1" viewBox="0 0 32 32">
      <path fill="none" stroke="#407bff" d="M9 4v3M23 4v3M4 25v-15c0-0.796 0.316-1.559 0.879-2.121s1.326-0.879 2.121-0.879h18c0.796 0 1.559 0.316 2.121 0.879s0.879 1.326 0.879 2.121v15M4 25c0 0.796 0.316 1.559 0.879 2.121s1.326 0.879 2.121 0.879h18c0.796 0 1.559-0.316 2.121-0.879s0.879-1.326 0.879-2.121M4 25v-10c0-0.796 0.316-1.559 0.879-2.121s1.326-0.879 2.121-0.879h18c0.796 0 1.559 0.316 2.121 0.879s0.879 1.326 0.879 2.121v10M16 17h0.011v0.011h-0.011v-0.011zM16 20h0.011v0.011h-0.011v-0.011zM16 23h0.011v0.011h-0.011v-0.011zM13 20h0.011v0.011h-0.011v-0.011zM13 23h0.011v0.011h-0.011v-0.011zM10 20h0.011v0.011h-0.011v-0.011zM10 23h0.011v0.011h-0.011v-0.011zM19 17h0.011v0.011h-0.011v-0.011zM19 20h0.011v0.011h-0.011v-0.011zM19 23h0.011v0.011h-0.011v-0.011zM22 17h0.011v0.011h-0.011v-0.011zM22 20h0.011v0.011h-0.011v-0.011z"></path>
    </symbol>
    <symbol id="benefits-2" viewBox="0 0 32 32">
      <path fill="none" stroke="#407bff" style="stroke: var(--color1, #407bff)" stroke-linejoin="round" stroke-linecap="round" stroke-miterlimit="4" stroke-width="2" d="M5 4v15c0 0.796 0.316 1.559 0.879 2.121s1.326 0.879 2.121 0.879h3M5 4h-2M5 4h22M11 22h10M11 22l-1.333 4M27 4h2M27 4v15c0 0.796-0.316 1.559-0.879 2.121s-1.326 0.879-2.121 0.879h-3M21 22l1.333 4M9.667 26h12.667M9.667 26l-0.667 2M22.333 26l0.667 2M12 15v2M16 12v5M20 9v8"></path>
    </symbol>
      <symbol id="benefits-3" viewBox="0 0 32 32">
    <path fill="none" stroke="#407bff" style="stroke: var(--color1, #407bff)" stroke-linejoin="round" stroke-linecap="round" stroke-miterlimit="4" stroke-width="2" d="M15.227 20.227l7.773 7.773c0.667 0.645 1.56 1.003 2.488 0.995s1.816-0.38 2.472-1.036c0.656-0.656 1.028-1.544 1.036-2.472s-0.35-1.821-0.995-2.488l-7.836-7.836M15.227 20.227l3.328-4.040c0.423-0.512 0.987-0.835 1.611-1.021 0.733-0.219 1.551-0.251 2.324-0.187 1.043 0.089 2.090-0.095 3.039-0.536s1.766-1.121 2.371-1.975c0.605-0.854 0.975-1.851 1.076-2.893s-0.074-2.091-0.504-3.045l-4.368 4.369c-0.731-0.169-1.399-0.54-1.93-1.070s-0.901-1.199-1.070-1.93l4.368-4.368c-0.953-0.431-2.003-0.605-3.045-0.504s-2.039 0.471-2.893 1.076-1.535 1.422-1.975 2.371c-0.44 0.949-0.625 1.997-0.535 3.039 0.121 1.435-0.095 3.019-1.205 3.933l-0.136 0.113M15.227 20.227l-6.207 7.537c-0.301 0.367-0.675 0.666-1.099 0.88s-0.887 0.335-1.361 0.359c-0.474 0.023-0.947-0.053-1.39-0.224s-0.844-0.432-1.18-0.767-0.597-0.737-0.767-1.18c-0.171-0.442-0.247-0.916-0.223-1.39s0.146-0.937 0.359-1.361c0.213-0.424 0.513-0.798 0.88-1.099l9.116-7.507-5.476-5.476h-1.879l-3-5 2-2 5 3v1.879l5.68 5.68-2.327 1.916M24.5 24.5l-3.5-3.5M6.489 25.5h0.011v0.011h-0.011v-0.011z"></path>
    </symbol>
<!-- WelcomePage -->
    <symbol id="user" viewBox="0 0 32 32">
      <path stroke-width="1.333" d="M31.333 16c0 8.468-6.865 15.333-15.333 15.333S.667 24.468.667 16 7.532.667 16 .667 31.333 7.532 31.333 16z"/>
      <path stroke-linecap="round" stroke-linejoin="round" stroke-width="1.333" d="M20.001 9.436c0 1.088-.421 2.132-1.172 2.901S17.061 13.539 16 13.539c-1.061 0-2.079-.432-2.829-1.202s-1.172-1.813-1.172-2.901c0-1.088.421-2.132 1.172-2.901S14.939 5.333 16 5.333c1.061 0 2.079.432 2.829 1.202s1.172 1.813 1.172 2.901zM8 24.881c.034-2.153.892-4.205 2.389-5.715S13.901 16.81 16 16.81c2.099 0 4.115.846 5.611 2.356s2.355 3.562 2.389 5.715a18.732 18.732 0 0 1-8 1.785c-2.855 0-5.564-.639-8-1.785z"/>
    </symbol>
  </defs>
</svg>